<?xml version="1.0" standalone="no"?>
<!DOCTYPE svg PUBLIC "-//W3C//DTD SVG 20010904//EN"
 "http://www.w3.org/TR/2001/REC-SVG-20010904/DTD/svg10.dtd">
<svg version="1.0" xmlns="http://www.w3.org/2000/svg"
 width="128.000000pt" height="128.000000pt" viewBox="0 0 128.000000 128.000000"
 preserveAspectRatio="xMidYMid meet">
<metadata>
Created by potrace 1.14, written by Peter Selinger 2001-2017
</metadata>
<g transform="translate(0.000000,128.000000) scale(0.100000,-0.100000)"
fill="#000000" stroke="none">
<path d="M711 851 c-18 -33 -104 -390 -97 -406 3 -8 17 -15 31 -15 30 0 36 11
66 138 l22 94 46 -7 c25 -4 60 -14 76 -24 31 -18 30 -16 34 -129 2 -57 87 -92
138 -57 23 16 63 95 63 125 0 36 -27 21 -39 -22 -18 -62 -38 -88 -65 -88 -31
0 -37 19 -26 80 7 35 6 58 -2 76 -14 29 -65 58 -123 69 -45 8 -51 -1 59 84
l57 44 15 -21 c19 -27 55 -28 78 -3 20 22 18 49 -5 64 -31 20 -87 -3 -170 -69
-45 -36 -90 -69 -100 -75 -23 -12 -24 -3 -4 71 8 30 12 63 9 73 -7 23 -51 22
-63 -2z"/>
<path d="M365 837 c-124 -58 -185 -195 -136 -302 33 -72 86 -105 167 -105 43
0 124 32 124 49 0 18 -14 18 -53 0 -23 -10 -56 -19 -73 -19 -65 0 -112 71 -99
150 l7 40 88 0 c61 0 91 4 99 13 18 22 2 27 -90 27 -99 0 -100 2 -52 67 32 44
58 57 128 63 44 4 60 9 60 20 0 27 -110 25 -170 -3z"/>
</g>
</svg>
